<svg width="150" height="22" viewBox="0 0 150 22" fill="none" xmlns="http://www.w3.org/2000/svg">
<g filter="url(#filter0_d_1_17)">
<path d="M5.82812 12.2734H11.2188V13.5H4.32031V2.125H5.82812V12.2734ZM18.0719 13.5C17.9885 13.3333 17.9208 13.0365 17.8687 12.6094C17.1969 13.3073 16.3948 13.6562 15.4625 13.6562C14.6292 13.6562 13.9443 13.4219 13.4078 12.9531C12.8766 12.4792 12.6109 11.8802 12.6109 11.1562C12.6109 10.276 12.9443 9.59375 13.6109 9.10938C14.2828 8.61979 15.2255 8.375 16.4391 8.375H17.8453V7.71094C17.8453 7.20573 17.6943 6.80469 17.3922 6.50781C17.0901 6.20573 16.6448 6.05469 16.0562 6.05469C15.5406 6.05469 15.1083 6.1849 14.7594 6.44531C14.4104 6.70573 14.2359 7.02083 14.2359 7.39062H12.7828C12.7828 6.96875 12.9312 6.5625 13.2281 6.17188C13.5302 5.77604 13.9365 5.46354 14.4469 5.23438C14.9625 5.00521 15.5276 4.89062 16.1422 4.89062C17.1161 4.89062 17.8792 5.13542 18.4312 5.625C18.9833 6.10938 19.2698 6.77865 19.2906 7.63281V11.5234C19.2906 12.2995 19.3896 12.9167 19.5875 13.375V13.5H18.0719ZM15.6734 12.3984C16.1266 12.3984 16.5562 12.2812 16.9625 12.0469C17.3687 11.8125 17.663 11.5078 17.8453 11.1328V9.39844H16.7125C14.9417 9.39844 14.0562 9.91667 14.0562 10.9531C14.0562 11.4062 14.2073 11.7604 14.5094 12.0156C14.8115 12.2708 15.1995 12.3984 15.6734 12.3984ZM28.8625 9.36719C28.8625 10.6589 28.5656 11.6979 27.9719 12.4844C27.3781 13.2656 26.5812 13.6562 25.5812 13.6562C24.5135 13.6562 23.688 13.2786 23.1047 12.5234L23.0344 13.5H21.7062V1.5H23.1516V5.97656C23.7349 5.2526 24.5396 4.89062 25.5656 4.89062C26.5917 4.89062 27.3964 5.27865 27.9797 6.05469C28.5682 6.83073 28.8625 7.89323 28.8625 9.24219V9.36719ZM27.4172 9.20312C27.4172 8.21875 27.2271 7.45833 26.8469 6.92188C26.4667 6.38542 25.9198 6.11719 25.2062 6.11719C24.2531 6.11719 23.5682 6.5599 23.1516 7.44531V11.1016C23.5943 11.987 24.2844 12.4297 25.2219 12.4297C25.9146 12.4297 26.4536 12.1615 26.8391 11.625C27.2245 11.0885 27.4172 10.2812 27.4172 9.20312ZM34.3484 13.6562C33.2026 13.6562 32.2703 13.2812 31.5516 12.5312C30.8328 11.776 30.4734 10.7682 30.4734 9.50781V9.24219C30.4734 8.40365 30.6323 7.65625 30.95 7C31.2729 6.33854 31.7208 5.82292 32.2938 5.45312C32.8719 5.07812 33.4969 4.89062 34.1688 4.89062C35.2677 4.89062 36.1219 5.2526 36.7313 5.97656C37.3406 6.70052 37.6453 7.73698 37.6453 9.08594V9.6875H31.9188C31.9396 10.5208 32.1818 11.1953 32.6453 11.7109C33.1141 12.2214 33.7078 12.4766 34.4266 12.4766C34.937 12.4766 35.3693 12.3724 35.7234 12.1641C36.0776 11.9557 36.3875 11.6797 36.6531 11.3359L37.5359 12.0234C36.8276 13.112 35.7651 13.6562 34.3484 13.6562ZM34.1688 6.07812C33.5854 6.07812 33.0958 6.29167 32.7 6.71875C32.3042 7.14062 32.0594 7.73438 31.9656 8.5H36.2V8.39062C36.1583 7.65625 35.9604 7.08854 35.6063 6.6875C35.2521 6.28125 34.7729 6.07812 34.1688 6.07812ZM41.0453 13.5H39.6V1.5H41.0453V13.5Z" fill="black" fill-opacity="0.6"/>
</g>
<defs>
<filter id="filter0_d_1_17" x="-1" y="0" width="155" height="25" filterUnits="userSpaceOnUse" color-interpolation-filters="sRGB">
<feFlood flood-opacity="0" result="BackgroundImageFix"/>
<feColorMatrix in="SourceAlpha" type="matrix" values="0 0 0 0 0 0 0 0 0 0 0 0 0 0 0 0 0 0 127 0" result="hardAlpha"/>
<feOffset dy="4"/>
<feGaussianBlur stdDeviation="2"/>
<feComposite in2="hardAlpha" operator="out"/>
<feColorMatrix type="matrix" values="0 0 0 0 0 0 0 0 0 0 0 0 0 0 0 0 0 0 0.25 0"/>
<feBlend mode="normal" in2="BackgroundImageFix" result="effect1_dropShadow_1_17"/>
<feBlend mode="normal" in="SourceGraphic" in2="effect1_dropShadow_1_17" result="shape"/>
</filter>
</defs>
</svg>
