<svg width="105" height="14" viewBox="0 0 105 14" fill="none" xmlns="http://www.w3.org/2000/svg">
<path d="M2.384 0.489999V8.464C2.384 9.412 2.63 10.126 3.122 10.606C3.626 11.086 4.322 11.326 5.21 11.326C6.11 11.326 6.806 11.086 7.298 10.606C7.802 10.126 8.054 9.412 8.054 8.464V0.489999H10.106V8.428C10.106 9.448 9.884 10.312 9.44 11.02C8.996 11.728 8.402 12.256 7.658 12.604C6.914 12.952 6.092 13.126 5.192 13.126C4.292 13.126 3.47 12.952 2.726 12.604C1.994 12.256 1.412 11.728 0.98 11.02C0.548 10.312 0.332 9.448 0.332 8.428V0.489999H2.384ZM16.3777 13.162C15.5977 13.162 14.8957 13.024 14.2717 12.748C13.6597 12.46 13.1737 12.076 12.8137 11.596C12.4537 11.104 12.2617 10.558 12.2377 9.958H14.3617C14.3977 10.378 14.5957 10.732 14.9557 11.02C15.3277 11.296 15.7897 11.434 16.3417 11.434C16.9177 11.434 17.3617 11.326 17.6737 11.11C17.9977 10.882 18.1597 10.594 18.1597 10.246C18.1597 9.874 17.9797 9.598 17.6197 9.418C17.2717 9.238 16.7137 9.04 15.9457 8.824C15.2017 8.62 14.5957 8.422 14.1277 8.23C13.6597 8.038 13.2517 7.744 12.9037 7.348C12.5677 6.952 12.3997 6.43 12.3997 5.782C12.3997 5.254 12.5557 4.774 12.8677 4.342C13.1797 3.898 13.6237 3.55 14.1997 3.298C14.7877 3.046 15.4597 2.92 16.2157 2.92C17.3437 2.92 18.2497 3.208 18.9337 3.784C19.6297 4.348 20.0017 5.122 20.0497 6.106H17.9977C17.9617 5.662 17.7817 5.308 17.4577 5.044C17.1337 4.78 16.6957 4.648 16.1437 4.648C15.6037 4.648 15.1897 4.75 14.9017 4.954C14.6137 5.158 14.4697 5.428 14.4697 5.764C14.4697 6.028 14.5657 6.25 14.7577 6.43C14.9497 6.61 15.1837 6.754 15.4597 6.862C15.7357 6.958 16.1437 7.084 16.6837 7.24C17.4037 7.432 17.9917 7.63 18.4477 7.834C18.9157 8.026 19.3177 8.314 19.6537 8.698C19.9897 9.082 20.1637 9.592 20.1757 10.228C20.1757 10.792 20.0197 11.296 19.7077 11.74C19.3957 12.184 18.9517 12.532 18.3757 12.784C17.8117 13.036 17.1457 13.162 16.3777 13.162ZM31.483 7.798C31.483 8.17 31.459 8.506 31.411 8.806H23.833C23.893 9.598 24.187 10.234 24.715 10.714C25.243 11.194 25.891 11.434 26.659 11.434C27.763 11.434 28.543 10.972 28.999 10.048H31.213C30.913 10.96 30.367 11.71 29.575 12.298C28.795 12.874 27.823 13.162 26.659 13.162C25.711 13.162 24.859 12.952 24.103 12.532C23.359 12.1 22.771 11.5 22.339 10.732C21.919 9.952 21.709 9.052 21.709 8.032C21.709 7.012 21.913 6.118 22.321 5.35C22.741 4.57 23.323 3.97 24.067 3.55C24.823 3.13 25.687 2.92 26.659 2.92C27.595 2.92 28.429 3.124 29.161 3.532C29.893 3.94 30.463 4.516 30.871 5.26C31.279 5.992 31.483 6.838 31.483 7.798ZM29.341 7.15C29.329 6.394 29.059 5.788 28.531 5.332C28.003 4.876 27.349 4.648 26.569 4.648C25.861 4.648 25.255 4.876 24.751 5.332C24.247 5.776 23.947 6.382 23.851 7.15H29.341ZM35.5543 4.522C35.8543 4.018 36.2503 3.628 36.7423 3.352C37.2463 3.064 37.8403 2.92 38.5243 2.92V5.044H38.0023C37.1983 5.044 36.5863 5.248 36.1663 5.656C35.7583 6.064 35.5543 6.772 35.5543 7.78V13H33.5023V3.082H35.5543V4.522ZM45.4145 2.92C46.1945 2.92 46.8905 3.082 47.5025 3.406C48.1265 3.73 48.6125 4.21 48.9605 4.846C49.3085 5.482 49.4825 6.25 49.4825 7.15V13H47.4485V7.456C47.4485 6.568 47.2265 5.89 46.7825 5.422C46.3385 4.942 45.7325 4.702 44.9645 4.702C44.1965 4.702 43.5845 4.942 43.1285 5.422C42.6845 5.89 42.4625 6.568 42.4625 7.456V13H40.4105V3.082H42.4625V4.216C42.7985 3.808 43.2245 3.49 43.7405 3.262C44.2685 3.034 44.8265 2.92 45.4145 2.92ZM51.416 7.996C51.416 7 51.62 6.118 52.028 5.35C52.448 4.582 53.012 3.988 53.72 3.568C54.44 3.136 55.232 2.92 56.096 2.92C56.876 2.92 57.554 3.076 58.13 3.388C58.718 3.688 59.186 4.066 59.534 4.522V3.082H61.604V13H59.534V11.524C59.186 11.992 58.712 12.382 58.112 12.694C57.512 13.006 56.828 13.162 56.06 13.162C55.208 13.162 54.428 12.946 53.72 12.514C53.012 12.07 52.448 11.458 52.028 10.678C51.62 9.886 51.416 8.992 51.416 7.996ZM59.534 8.032C59.534 7.348 59.39 6.754 59.102 6.25C58.826 5.746 58.46 5.362 58.004 5.098C57.548 4.834 57.056 4.702 56.528 4.702C56 4.702 55.508 4.834 55.052 5.098C54.596 5.35 54.224 5.728 53.936 6.232C53.66 6.724 53.522 7.312 53.522 7.996C53.522 8.68 53.66 9.28 53.936 9.796C54.224 10.312 54.596 10.708 55.052 10.984C55.52 11.248 56.012 11.38 56.528 11.38C57.056 11.38 57.548 11.248 58.004 10.984C58.46 10.72 58.826 10.336 59.102 9.832C59.39 9.316 59.534 8.716 59.534 8.032ZM76.3052 2.92C77.0852 2.92 77.7812 3.082 78.3932 3.406C79.0172 3.73 79.5032 4.21 79.8512 4.846C80.2112 5.482 80.3912 6.25 80.3912 7.15V13H78.3572V7.456C78.3572 6.568 78.1352 5.89 77.6912 5.422C77.2472 4.942 76.6412 4.702 75.8732 4.702C75.1052 4.702 74.4932 4.942 74.0372 5.422C73.5932 5.89 73.3712 6.568 73.3712 7.456V13H71.3372V7.456C71.3372 6.568 71.1152 5.89 70.6712 5.422C70.2272 4.942 69.6212 4.702 68.8532 4.702C68.0852 4.702 67.4732 4.942 67.0172 5.422C66.5732 5.89 66.3512 6.568 66.3512 7.456V13H64.2992V3.082H66.3512V4.216C66.6872 3.808 67.1132 3.49 67.6292 3.262C68.1452 3.034 68.6972 2.92 69.2852 2.92C70.0772 2.92 70.7852 3.088 71.4092 3.424C72.0332 3.76 72.5132 4.246 72.8492 4.882C73.1492 4.282 73.6172 3.808 74.2532 3.46C74.8892 3.1 75.5732 2.92 76.3052 2.92ZM92.0923 7.798C92.0923 8.17 92.0683 8.506 92.0203 8.806H84.4423C84.5023 9.598 84.7963 10.234 85.3243 10.714C85.8523 11.194 86.5003 11.434 87.2683 11.434C88.3723 11.434 89.1523 10.972 89.6083 10.048H91.8223C91.5223 10.96 90.9763 11.71 90.1843 12.298C89.4043 12.874 88.4323 13.162 87.2683 13.162C86.3203 13.162 85.4683 12.952 84.7123 12.532C83.9683 12.1 83.3803 11.5 82.9483 10.732C82.5283 9.952 82.3183 9.052 82.3183 8.032C82.3183 7.012 82.5223 6.118 82.9303 5.35C83.3503 4.57 83.9323 3.97 84.6763 3.55C85.4323 3.13 86.2963 2.92 87.2683 2.92C88.2043 2.92 89.0383 3.124 89.7703 3.532C90.5023 3.94 91.0723 4.516 91.4803 5.26C91.8883 5.992 92.0923 6.838 92.0923 7.798ZM89.9503 7.15C89.9383 6.394 89.6683 5.788 89.1403 5.332C88.6123 4.876 87.9583 4.648 87.1783 4.648C86.4703 4.648 85.8643 4.876 85.3603 5.332C84.8563 5.776 84.5563 6.382 84.4603 7.15H89.9503ZM94.9397 13.126C94.5677 13.126 94.2557 13 94.0037 12.748C93.7517 12.496 93.6257 12.184 93.6257 11.812C93.6257 11.44 93.7517 11.128 94.0037 10.876C94.2557 10.624 94.5677 10.498 94.9397 10.498C95.2997 10.498 95.6057 10.624 95.8577 10.876C96.1097 11.128 96.2357 11.44 96.2357 11.812C96.2357 12.184 96.1097 12.496 95.8577 12.748C95.6057 13 95.2997 13.126 94.9397 13.126ZM99.2815 13.126C98.9095 13.126 98.5975 13 98.3455 12.748C98.0935 12.496 97.9675 12.184 97.9675 11.812C97.9675 11.44 98.0935 11.128 98.3455 10.876C98.5975 10.624 98.9095 10.498 99.2815 10.498C99.6415 10.498 99.9475 10.624 100.2 10.876C100.452 11.128 100.578 11.44 100.578 11.812C100.578 12.184 100.452 12.496 100.2 12.748C99.9475 13 99.6415 13.126 99.2815 13.126ZM103.623 13.126C103.251 13.126 102.939 13 102.687 12.748C102.435 12.496 102.309 12.184 102.309 11.812C102.309 11.44 102.435 11.128 102.687 10.876C102.939 10.624 103.251 10.498 103.623 10.498C103.983 10.498 104.289 10.624 104.541 10.876C104.793 11.128 104.919 11.44 104.919 11.812C104.919 12.184 104.793 12.496 104.541 12.748C104.289 13 103.983 13.126 103.623 13.126Z" fill="#162D2F"/>
</svg>
